<?xml version="1.0" encoding="utf-8"?>
<!-- Generator: Adobe Illustrator 24.0.0, SVG Export Plug-In . SVG Version: 6.00 Build 0)  -->
<svg version="1.1" id="Calque_1" xmlns="http://www.w3.org/2000/svg" xmlns:xlink="http://www.w3.org/1999/xlink" x="0px" y="0px"
	 viewBox="0 0 320 100" style="enable-background:new 0 0 320 100;" xml:space="preserve">
<style type="text/css">
	.st0{fill:#F8B500;}
	.st1{fill:#111111;}
</style>
<g id="SvgjsG2111" transform="matrix(1.1111111640930176,0,0,1.1111111640930176,-5.555555555555555,-5.555555555555555)">
	<g>
		<rect x="16.3" y="83.8" class="st0" width="5.6" height="5.6"/>
		<rect x="10.6" y="78.1" class="st0" width="5.6" height="5.6"/>
		<polygon class="st0" points="10.6,83.8 5,83.8 5,95 16.3,95 16.3,89.4 10.6,89.4 		"/>
		<rect x="21.9" y="78.1" class="st0" width="5.6" height="5.6"/>
		<rect x="16.3" y="72.5" class="st0" width="5.6" height="5.6"/>
		<rect x="27.5" y="72.5" class="st0" width="5.6" height="5.6"/>
		<rect x="21.9" y="66.9" class="st0" width="5.6" height="5.6"/>
		<polygon class="st0" points="38.8,83.8 38.8,89.4 50,89.4 50,72.5 44.4,72.5 44.4,83.8 		"/>
		<rect x="38.8" y="66.9" class="st0" width="5.6" height="5.6"/>
		<rect x="33.1" y="61.3" class="st0" width="5.6" height="5.6"/>
		<rect x="27.5" y="55.6" class="st0" width="5.6" height="5.6"/>
		<rect x="44.4" y="61.3" class="st0" width="5.6" height="5.6"/>
		<rect x="33.1" y="50" class="st0" width="5.6" height="5.6"/>
		<rect x="50" y="55.6" class="st0" width="5.6" height="5.6"/>
		<rect x="38.8" y="44.4" class="st0" width="5.6" height="5.6"/>
		<rect x="55.6" y="50" class="st0" width="5.6" height="5.6"/>
		<rect x="44.4" y="38.8" class="st0" width="5.6" height="5.6"/>
		<rect x="61.3" y="44.4" class="st0" width="5.6" height="5.6"/>
		<rect x="50" y="33.1" class="st0" width="5.6" height="5.6"/>
		<rect x="66.9" y="38.8" class="st0" width="5.6" height="5.6"/>
		<rect x="55.6" y="27.5" class="st0" width="5.6" height="5.6"/>
		<rect x="72.5" y="33.1" class="st0" width="5.6" height="5.6"/>
		<rect x="61.3" y="21.9" class="st0" width="5.6" height="5.6"/>
		<rect x="78.1" y="27.5" class="st0" width="5.6" height="5.6"/>
		<rect x="66.9" y="16.3" class="st0" width="5.6" height="5.6"/>
		<rect x="83.8" y="21.9" class="st0" width="5.6" height="5.6"/>
		<rect x="72.5" y="10.6" class="st0" width="5.6" height="5.6"/>
		<polygon class="st0" points="78.1,5 78.1,10.6 89.4,10.6 89.4,21.9 95,21.9 95,5 		"/>
		<rect x="33.1" y="78.1" class="st0" width="5.6" height="5.6"/>
		<rect x="16.3" y="61.3" class="st0" width="5.6" height="5.6"/>
		<polygon class="st0" points="27.5,55.6 27.5,50 10.6,50 10.6,61.3 16.3,61.3 16.3,55.6 		"/>
	</g>
</g>
<g id="SvgjsG2112" transform="matrix(0.678145706653595,0,0,0.678145706653595,119.47019867549669,33.62251655629139)">
	<path class="st1" d="M-9.3,11.5L-9.3,11.5c2.4,0.1,4.6,0.5,6.7,1.4c2.1,0.9,4,2.1,5.5,3.7l-4.9,4.9c-2.1-2-4.5-3.1-7.3-3.1
		c-2.9,0-5.3,1-7.3,3.1s-3,4.5-3,7.3c0,2.9,1,5.3,3,7.3s4.5,3,7.3,3c2.3,0,4.3-0.6,6-1.9s3-3,3.7-5h-9.8v-6.9h9.8h4h3.1
		C7.9,26.4,8,27.6,8,28.8c0,4.8-1.7,8.8-5.1,12.2s-7.5,5.1-12.2,5.1s-8.8-1.7-12.2-5.1s-5.1-7.5-5.1-12.2s1.7-8.8,5.1-12.2
		S-14.1,11.5-9.3,11.5L-9.3,11.5z M31.1,11.6h6.9v13.8v6.9c0,3.8-1.3,7.1-4,9.8c-2.7,2.7-5.9,4-9.7,4c-3.8,0-7.1-1.3-9.8-4
		c-2.7-2.7-4-5.9-4-9.8v-6.9V11.6h6.9v13.8v6.2v0.7c0,1.9,0.7,3.5,2,4.8s3,2,4.8,2c1.9,0,3.5-0.7,4.8-2c1.4-1.3,2-3,2-4.8v-0.7v-6.2
		L31.1,11.6L31.1,11.6z M41.4,45.9V11.6h6.9v34.3H41.4z M51.7,11.6h6.9V39h13.7v6.9H51.7L51.7,11.6L51.7,11.6z M83.2,11.7L83.2,11.7
		c4.7,0,9.1,1.7,12.5,5c6.1,6.1,6.1,18,0,24.1c-3.4,3.3-7.8,5-12.5,5h-8.5V11.7L83.2,11.7L83.2,11.7z M83.2,39L83.2,39
		c2.8,0,5.4-0.8,7.4-2.8c2-2,2.8-4.6,2.8-7.5c0-2.8-0.8-5.4-2.8-7.5c-2-2-4.6-2.8-7.4-2.8h-1.6V39L83.2,39L83.2,39z M102.9,11.6h6.9
		v13.7H120V11.6h6.9v34.3H120V32.2h-10.3v13.7h-6.9V11.6z M146.7,11.5c4.8,0,8.8,1.7,12.2,5.1S164,24,164,28.8s-1.7,8.8-5.1,12.2
		s-7.5,5.1-12.2,5.1s-8.8-1.7-12.2-5.1c-3.4-3.4-5.1-7.5-5.1-12.2s1.7-8.8,5.1-12.2C137.9,13.2,141.9,11.5,146.7,11.5z M146.7,18.4
		c-2.9,0-5.3,1-7.3,3.1c-2,2-3,4.5-3,7.3c0,2.9,1,5.3,3,7.3c2,2,4.5,3,7.3,3c2.8,0,5.3-1,7.3-3c2-2,3.1-4.5,3.1-7.3
		c0-2.8-1-5.3-3.1-7.3C152,19.4,149.5,18.4,146.7,18.4z M166.5,45.9l0-34.3h11.1c3.3,0,6.5,1.1,8.9,3.5s3.3,4.6,3.3,7.9V24
		c0,2.5-0.7,4.4-2.2,6.5s-2.7,2.6-4.9,3.5l7.7,11.9h-8.4l-8.8-13.4v13.4L166.5,45.9L166.5,45.9z M173.4,28.1l4.9,0
		c1.4,0,2.1-0.4,3.1-1.4c1-1,1.4-2.1,1.4-3.6c0-1.4-0.4-2.3-1.4-3.4c-1-1-2.8-1.4-4.2-1.4h-3.8L173.4,28.1L173.4,28.1z M193.7,45.9
		V11.6h6.9v34.3H193.7z M203.6,11.6h24L214.4,39h13.1v6.9h-24l13.1-27.4h-13.1V11.6L203.6,11.6z M247,11.5c4.8,0,8.8,1.7,12.2,5.1
		c3.4,3.4,5.1,7.5,5.1,12.2s-1.7,8.8-5.1,12.2c-3.4,3.4-7.5,5.1-12.2,5.1c-4.8,0-8.8-1.7-12.2-5.1s-5.1-7.5-5.1-12.2
		s1.7-8.8,5.1-12.2S242.2,11.5,247,11.5z M247,18.4c-2.9,0-5.3,1-7.3,3.1s-3,4.5-3,7.3c0,2.9,1,5.3,3,7.3s4.5,3,7.3,3
		c2.8,0,5.3-1,7.3-3c2-2,3.1-4.5,3.1-7.3c0-2.8-1-5.3-3.1-7.3C252.3,19.4,249.8,18.4,247,18.4L247,18.4z M266.8,11l20.5,19.6V11.6
		h6.9v34.9l-20.5-19.6v19h-6.9V11z"/>
</g>
</svg>
